<?xml version="1.0" encoding="UTF-8"?><svg id="b" xmlns="http://www.w3.org/2000/svg" viewBox="0 0 1368.84 275.15"><g id="c"><path d="m5.05,35.45h181.67v33.31h-73.93v148.37h-33.56V68.76H5.05v-33.31Z" fill="#1f9e4d" stroke-width="0"/><path d="m204.63,22.83h33.05v33.31h-33.05V22.83Zm0,194.29V70.77h33.05v146.35h-33.05Z" fill="#1f9e4d" stroke-width="0"/><path d="m445.34,70.77c9.59,0,17.79,3.41,24.6,10.22s10.22,15.01,10.22,24.6v111.53h-32.8v-111.53c0-1.17-.67-1.77-2.02-1.77h-55.01c-1.01,0-1.51.59-1.51,1.77v111.53h-33.31v-111.53c0-1.17-.5-1.77-1.51-1.77h-55.26c-1.18,0-1.77.59-1.77,1.77v111.53h-33.05V70.77h181.42Z" fill="#1f9e4d" stroke-width="0"/><path d="m681.26,70.77c9.59,0,17.79,3.41,24.6,10.22,6.81,6.81,10.22,15.01,10.22,24.6v111.53h-32.8v-111.53c0-1.17-.67-1.77-2.02-1.77h-55.01c-1.01,0-1.51.59-1.51,1.77v111.53h-33.31v-111.53c0-1.17-.5-1.77-1.51-1.77h-55.26c-1.18,0-1.77.59-1.77,1.77v111.53h-33.05V70.77h181.42Z" fill="#1f9e4d" stroke-width="0"/><path d="m849.82,70.77c9.59,0,17.79,3.41,24.6,10.22,6.81,6.81,10.22,15.01,10.22,24.6v55.01h-115.56v21.7c0,1.18.59,1.77,1.77,1.77h113.8v33.05h-113.8c-9.59,0-17.79-3.41-24.6-10.22s-10.22-15.01-10.22-24.6v-76.71c0-9.59,3.41-17.79,10.22-24.6,6.81-6.81,15.01-10.22,24.6-10.22h78.98Zm-80.74,56.52h82.51v-21.7c0-1.17-.59-1.77-1.77-1.77h-78.98c-1.18,0-1.77.59-1.77,1.77v21.7Z" fill="#1f9e4d" stroke-width="0"/><path d="m939.39,70.77h81.25v33.05h-81.25c-1.18,0-1.77.59-1.77,1.77v111.53h-33.05v-111.53c0-9.59,3.41-17.79,10.22-24.6,6.81-6.81,15.01-10.22,24.6-10.22Z" fill="#1f9e4d" stroke-width="0"/><path d="m1072.37,184.07h113.8v33.05h-113.8c-9.59,0-17.79-3.41-24.6-10.22s-10.22-15.01-10.22-24.6v-76.71c0-9.59,3.41-17.79,10.22-24.6,6.81-6.81,15.01-10.22,24.6-10.22h113.29v33.05h-113.29c-1.18,0-1.77.59-1.77,1.77v76.71c0,1.18.59,1.77,1.77,1.77Z" fill="#1f9e4d" stroke-width="0"/><path d="m1320.9,70.77c9.59,0,17.79,3.41,24.6,10.22,6.81,6.81,10.22,15.01,10.22,24.6v55.01h-115.56v21.7c0,1.18.59,1.77,1.77,1.77h113.8v33.05h-113.8c-9.59,0-17.79-3.41-24.6-10.22s-10.22-15.01-10.22-24.6v-76.71c0-9.59,3.41-17.79,10.22-24.6,6.81-6.81,15.01-10.22,24.6-10.22h78.98Zm-80.74,56.52h82.51v-21.7c0-1.17-.59-1.77-1.77-1.77h-78.98c-1.18,0-1.77.59-1.77,1.77v21.7Z" fill="#1f9e4d" stroke-width="0"/></g></svg>